<?xml version="1.0" standalone="no"?>
<!DOCTYPE svg PUBLIC "-//W3C//DTD SVG 20010904//EN"
 "http://www.w3.org/TR/2001/REC-SVG-20010904/DTD/svg10.dtd">
<svg version="1.0" xmlns="http://www.w3.org/2000/svg"
 width="960.000000pt" height="960.000000pt" viewBox="0 0 960.000000 960.000000"
 preserveAspectRatio="xMidYMid meet">
<metadata>
Created by potrace 1.11, written by Peter Selinger 2001-2013
</metadata>
<g transform="translate(0.000000,960.000000) scale(0.100000,-0.100000)"
fill="#000000" stroke="none">
<path d="M2685 9558 c-22 -16 -48 -35 -57 -43 -9 -7 -27 -19 -40 -26 -21 -11
-222 -168 -292 -228 -16 -14 -91 -87 -166 -161 -134 -135 -188 -194 -293 -325
-4 -5 -30 -41 -58 -80 -27 -38 -56 -78 -64 -88 -8 -9 -15 -20 -15 -22 0 -3
-11 -22 -23 -43 -93 -148 -218 -441 -241 -570 -3 -12 -7 -30 -10 -40 -22 -71
-31 -180 -30 -337 2 -157 2 -161 35 -319 86 -413 359 -816 789 -1161 47 -37
87 -71 90 -74 3 -3 12 -10 21 -16 16 -9 223 -164 244 -182 6 -5 80 -52 165
-106 85 -53 160 -100 165 -105 6 -4 18 -11 27 -15 10 -3 43 -22 73 -42 31 -19
57 -35 60 -35 2 0 38 -20 78 -45 41 -25 77 -45 79 -45 3 0 44 -22 92 -50 48
-27 91 -50 96 -50 4 0 10 -3 12 -7 2 -5 19 -16 38 -25 19 -10 60 -31 90 -49
78 -45 314 -176 385 -214 33 -18 91 -51 128 -74 37 -22 72 -41 77 -41 6 0 10
-4 10 -8 0 -5 15 -16 33 -25 40 -21 45 -24 187 -119 63 -42 126 -86 139 -97
13 -12 27 -21 30 -21 3 0 17 -10 31 -22 14 -13 52 -45 85 -73 159 -131 264
-251 329 -375 50 -95 75 -175 103 -325 13 -68 5 -313 -12 -385 -3 -14 -7 -38
-10 -55 -4 -30 -10 -58 -20 -105 -4 -14 -8 -36 -11 -50 -19 -92 -125 -406
-179 -525 -7 -16 -28 -64 -45 -105 -17 -41 -42 -99 -56 -128 -13 -29 -24 -55
-24 -59 0 -13 -434 -878 -444 -885 -6 -4 -8 -8 -4 -8 3 0 -4 -20 -18 -46 -13
-25 -24 -47 -24 -50 0 -19 442 290 506 353 7 7 17 13 22 13 6 0 12 4 14 9 2 4
26 27 53 51 179 151 363 332 535 525 20 22 71 87 115 145 44 58 83 107 88 108
4 2 7 10 7 17 0 7 3 15 8 17 8 3 122 174 122 182 0 3 11 21 24 41 44 65 179
354 190 408 2 7 6 21 10 32 19 49 31 88 51 165 12 46 28 127 26 134 -1 4 2 13
7 20 4 6 8 18 7 26 -1 8 2 22 6 31 8 16 22 187 22 264 0 48 -11 192 -17 221
-2 12 -7 39 -10 60 -19 117 -110 396 -162 497 -9 18 -21 41 -27 52 -37 72
-104 191 -119 210 -5 6 -33 44 -63 85 -105 144 -306 348 -484 493 -42 34 -81
66 -87 72 -6 5 -22 17 -34 25 -13 8 -35 24 -49 36 -14 12 -71 51 -126 88 -55
37 -108 75 -117 83 -10 9 -18 12 -18 8 0 -4 -8 -1 -17 7 -19 16 -168 108 -243
150 -25 14 -63 35 -85 48 -237 134 -293 163 -700 370 -358 181 -473 241 -568
296 -32 19 -60 34 -63 34 -17 0 -412 254 -434 279 -3 3 -32 29 -65 56 -99 83
-211 207 -262 290 -47 76 -95 218 -108 320 -6 44 -7 223 -1 270 3 36 17 134
21 155 7 33 47 196 52 210 3 8 8 23 9 33 2 9 13 45 25 80 12 34 22 69 24 77 2
8 20 58 40 110 21 52 38 101 38 108 0 6 4 12 8 12 4 0 10 11 13 24 8 34 223
511 290 647 18 36 28 66 22 66 -6 0 -29 -13 -51 -29z"/>
<path d="M7977 4970 c-7 -30 -34 -171 -42 -220 -4 -19 -10 -53 -15 -75 -5 -22
-12 -56 -15 -75 -3 -19 -13 -66 -21 -105 -15 -70 -20 -95 -28 -137 -3 -13 -12
-57 -21 -98 -9 -41 -19 -86 -21 -100 -3 -14 -21 -92 -40 -175 -41 -177 -43
-184 -48 -211 -3 -12 -21 -84 -41 -160 -20 -77 -39 -146 -40 -154 -2 -8 -18
-62 -35 -120 -17 -58 -33 -113 -35 -123 -7 -32 -16 -61 -25 -82 -4 -11 -31
-87 -58 -170 -71 -212 -96 -279 -107 -287 -5 -4 -7 -8 -3 -8 5 0 -34 -99 -77
-195 -7 -16 -24 -52 -36 -80 -19 -45 -64 -136 -114 -235 -65 -127 -248 -421
-267 -428 -4 -2 -8 -8 -8 -14 0 -17 -141 -194 -240 -302 -97 -105 -282 -276
-300 -276 -5 0 -10 -4 -10 -8 0 -5 -41 -38 -90 -73 -50 -35 -100 -72 -112 -81
-11 -10 -27 -18 -35 -18 -7 0 -13 -4 -13 -10 0 -5 -7 -10 -15 -10 -8 0 -15 -4
-15 -9 0 -5 -12 -14 -27 -20 -34 -13 -65 -32 -75 -46 -4 -5 -8 -6 -8 -1 0 5
-6 4 -12 -2 -21 -16 -188 -102 -188 -95 0 3 -11 -2 -25 -11 -83 -54 -542 -201
-751 -241 -11 -2 -19 -4 -19 -5 0 -2 -7 -3 -140 -29 -60 -12 -128 -24 -150
-27 -22 -4 -49 -8 -60 -9 -27 -5 -88 -14 -127 -20 -18 -2 -42 -6 -53 -9 -11
-2 -49 -7 -85 -11 -36 -3 -77 -8 -92 -11 -38 -6 -112 -14 -183 -19 -33 -3 -67
-7 -75 -9 -8 -3 -52 -8 -98 -11 -46 -4 -91 -8 -100 -10 -9 -2 -35 -4 -57 -5
l-40 -1 26 -14 c50 -27 234 -102 319 -130 47 -15 94 -31 105 -36 11 -4 40 -13
65 -19 25 -6 52 -14 60 -17 8 -3 22 -7 30 -9 9 -2 45 -10 80 -19 107 -26 121
-29 190 -41 14 -2 43 -7 65 -11 22 -4 52 -7 68 -7 15 -1 27 -3 27 -6 0 -3 12
-6 28 -6 15 -1 63 -5 107 -10 44 -4 181 -8 305 -8 199 -1 288 4 395 19 17 3
48 7 70 10 75 10 210 36 293 56 89 22 321 96 337 108 6 4 33 16 60 26 64 22
365 176 365 185 0 4 8 10 18 14 9 3 26 11 37 18 74 47 144 96 171 118 17 14
41 32 53 40 13 8 33 23 44 33 12 10 39 33 60 50 92 77 280 271 346 357 19 25
43 53 53 63 10 10 18 21 18 26 0 4 8 16 18 27 24 26 148 212 199 299 39 68
163 309 163 319 0 2 15 37 33 78 19 40 51 123 71 183 21 61 41 117 44 125 3 8
6 17 7 20 0 3 8 30 17 60 74 247 142 594 163 827 2 27 7 91 12 143 10 120 9
651 -1 748 -4 40 -11 98 -16 130 -4 31 -6 60 -4 64 3 4 0 9 -6 13 -6 4 -8 10
-5 15 3 5 1 40 -6 77 -6 37 -13 82 -15 98 -3 17 -9 50 -15 75 -5 25 -11 54
-13 65 -4 17 -32 138 -40 170 -2 6 -6 24 -11 40 -4 17 -14 50 -22 75 -8 25
-17 55 -19 68 -3 12 -15 51 -28 85 -21 54 -24 59 -29 37z"/>
</g>
</svg>
